<?xml version="1.0" encoding="UTF-8"?>
<svg width="192" height="192" version="1.1" viewBox="0 0 192 192" xmlns="http://www.w3.org/2000/svg">
 <rect width="192" height="192" rx=".5" ry=".5" stroke-width="10"/>
 <g fill="#fff" aria-label="C">
  <g aria-label="C">
   <path d="m98.368 142.08c16.512 0 26.624-9.728 33.024-23.552l-17.792-6.656c-4.096 6.784-8.704 11.52-15.232 11.52-12.288 0-17.536-14.72-17.536-27.392 0-12.288 4.224-27.392 17.536-27.392 7.04 0 11.008 3.84 15.488 10.624l17.408-7.808c-4.352-10.88-15.616-21.504-32.896-21.504-27.904 0-37.76 25.728-37.76 46.08 0 22.144 9.6 46.08 37.76 46.08z"/>
  </g>
 </g>
</svg>
