<?xml version="1.0" encoding="UTF-8"?>
<svg width="73.275" height="75.76" version="1.1" viewBox="0 0 73.275 75.76" xmlns="http://www.w3.org/2000/svg" xmlns:xlink="http://www.w3.org/1999/xlink">
 <defs>
  <style>.cls-1{fill:#253858;}.cls-2{fill:#2684ff;}.cls-3{fill:url(#linear-gradient);}.cls-4{fill:url(#linear-gradient-2);}</style>
  <linearGradient id="linear-gradient" x1="34.64" x2="19" y1="15.35" y2="30.99" gradientUnits="userSpaceOnUse">
   <stop stop-color="#0052cc" offset=".18"/>
   <stop stop-color="#2684ff" offset="1"/>
  </linearGradient>
  <linearGradient id="linear-gradient-2" x1="38.78" x2="54.39" y1="60.28" y2="44.67" xlink:href="#linear-gradient"/>
  <linearGradient id="linearGradient1049" x1="34.64" x2="19" y1="15.35" y2="30.99" gradientUnits="userSpaceOnUse" xlink:href="#linear-gradient"/>
 </defs>
 <title>Jira Software-blue</title>
 <g transform="translate(-.0026399)">
  <path class="cls-2" d="m72.4 35.76-35.76-35.76-35.76 35.76a3 3 0 0 0 0 4.24l35.76 35.76 35.76-35.76a3 3 0 0 0 0-4.24zm-35.76 13.32-11.2-11.2 11.2-11.2 11.2 11.2z"/>
  <path class="cls-3" d="m36.64 26.68a18.86 18.86 0 0 1-0.08-26.59l-24.51 24.5 13.34 13.34z" fill="url(#linearGradient1049)"/>
  <path class="cls-4" d="m47.87 37.85-11.23 11.23a18.86 18.86 0 0 1 0 26.68l24.57-24.57z" fill="url(#linear-gradient-2)"/>
 </g>
</svg>
